<svg width="90" height="19" viewBox="0 0 90 19" fill="none" xmlns="http://www.w3.org/2000/svg">
<path d="M0.968 18V1.248H12.008V4.056H4.136V8.112H11.096V10.92H4.136V15.192H12.008V18H0.968ZM14.7826 12.216V9.168H21.6466V12.216H14.7826ZM29.0206 18.288C27.8206 18.288 26.8126 18.088 25.9966 17.688C25.1806 17.272 24.4606 16.704 23.8366 15.984L25.7086 14.16C26.1726 14.688 26.6766 15.104 27.2206 15.408C27.7806 15.712 28.4206 15.864 29.1406 15.864C29.8766 15.864 30.4046 15.736 30.7246 15.48C31.0606 15.224 31.2286 14.872 31.2286 14.424C31.2286 14.056 31.1086 13.768 30.8686 13.56C30.6446 13.336 30.2526 13.184 29.6926 13.104L28.4446 12.936C27.0846 12.76 26.0446 12.376 25.3246 11.784C24.6206 11.176 24.2686 10.296 24.2686 9.144C24.2686 8.536 24.3806 7.992 24.6046 7.512C24.8286 7.016 25.1486 6.6 25.5646 6.264C25.9806 5.912 26.4766 5.648 27.0526 5.472C27.6446 5.28 28.3006 5.184 29.0206 5.184C29.6286 5.184 30.1646 5.232 30.6286 5.328C31.1086 5.408 31.5406 5.536 31.9246 5.712C32.3086 5.872 32.6606 6.08 32.9806 6.336C33.3006 6.576 33.6126 6.848 33.9166 7.152L32.1166 8.952C31.7486 8.568 31.3086 8.248 30.7966 7.992C30.2846 7.736 29.7246 7.608 29.1166 7.608C28.4446 7.608 27.9566 7.728 27.6526 7.968C27.3646 8.208 27.2206 8.52 27.2206 8.904C27.2206 9.32 27.3406 9.64 27.5806 9.864C27.8366 10.072 28.2606 10.224 28.8526 10.32L30.1246 10.488C32.8286 10.872 34.1806 12.104 34.1806 14.184C34.1806 14.792 34.0526 15.352 33.7966 15.864C33.5566 16.36 33.2126 16.792 32.7646 17.16C32.3166 17.512 31.7726 17.792 31.1326 18C30.5086 18.192 29.8046 18.288 29.0206 18.288ZM36.8932 0.24H39.9652V7.56H40.0852C40.3412 6.888 40.7412 6.328 41.2852 5.88C41.8452 5.416 42.6132 5.184 43.5892 5.184C44.8852 5.184 45.8772 5.608 46.5652 6.456C47.2532 7.304 47.5972 8.512 47.5972 10.08V18H44.5252V10.392C44.5252 9.496 44.3652 8.824 44.0452 8.376C43.7252 7.928 43.1972 7.704 42.4612 7.704C42.1412 7.704 41.8292 7.752 41.5252 7.848C41.2372 7.928 40.9732 8.056 40.7332 8.232C40.5092 8.392 40.3252 8.6 40.1812 8.856C40.0372 9.096 39.9652 9.384 39.9652 9.72V18H36.8932V0.24ZM56.0666 18.288C55.1386 18.288 54.3066 18.136 53.5706 17.832C52.8506 17.512 52.2346 17.072 51.7226 16.512C51.2266 15.936 50.8426 15.248 50.5706 14.448C50.2986 13.632 50.1626 12.72 50.1626 11.712C50.1626 10.72 50.2906 9.824 50.5466 9.024C50.8186 8.224 51.2026 7.544 51.6986 6.984C52.1946 6.408 52.8026 5.968 53.5226 5.664C54.2426 5.344 55.0586 5.184 55.9706 5.184C56.9466 5.184 57.7946 5.352 58.5146 5.688C59.2346 6.024 59.8266 6.48 60.2906 7.056C60.7546 7.632 61.0986 8.304 61.3226 9.072C61.5626 9.824 61.6826 10.632 61.6826 11.496V12.504H53.3546V12.816C53.3546 13.728 53.6106 14.464 54.1226 15.024C54.6346 15.568 55.3946 15.84 56.4026 15.84C57.1706 15.84 57.7946 15.68 58.2746 15.36C58.7706 15.04 59.2106 14.632 59.5946 14.136L61.2506 15.984C60.7386 16.704 60.0346 17.272 59.1386 17.688C58.2586 18.088 57.2346 18.288 56.0666 18.288ZM56.0186 7.488C55.2026 7.488 54.5546 7.76 54.0746 8.304C53.5946 8.848 53.3546 9.552 53.3546 10.416V10.608H58.4906V10.392C58.4906 9.528 58.2746 8.832 57.8426 8.304C57.4266 7.76 56.8186 7.488 56.0186 7.488ZM64.3854 0.24H67.4574V7.536H67.5534C67.7774 6.816 68.2014 6.248 68.8254 5.832C69.4494 5.4 70.1774 5.184 71.0094 5.184C72.6094 5.184 73.8254 5.752 74.6574 6.888C75.5054 8.008 75.9294 9.616 75.9294 11.712C75.9294 13.824 75.5054 15.448 74.6574 16.584C73.8254 17.72 72.6094 18.288 71.0094 18.288C70.1774 18.288 69.4494 18.072 68.8254 17.64C68.2174 17.208 67.7934 16.632 67.5534 15.912H67.4574V18H64.3854V0.24ZM70.0254 15.744C70.8254 15.744 71.4734 15.48 71.9694 14.952C72.4654 14.424 72.7134 13.712 72.7134 12.816V10.656C72.7134 9.76 72.4654 9.048 71.9694 8.52C71.4734 7.976 70.8254 7.704 70.0254 7.704C69.2894 7.704 68.6734 7.888 68.1774 8.256C67.6974 8.624 67.4574 9.112 67.4574 9.72V13.704C67.4574 14.36 67.6974 14.864 68.1774 15.216C68.6734 15.568 69.2894 15.744 70.0254 15.744ZM87.992 18C87.32 18 86.784 17.808 86.384 17.424C86 17.024 85.76 16.496 85.664 15.84H85.52C85.312 16.656 84.888 17.272 84.248 17.688C83.608 18.088 82.816 18.288 81.872 18.288C80.592 18.288 79.608 17.952 78.92 17.28C78.232 16.608 77.888 15.712 77.888 14.592C77.888 13.296 78.352 12.336 79.28 11.712C80.208 11.072 81.528 10.752 83.24 10.752H85.376V9.84C85.376 9.136 85.192 8.592 84.824 8.208C84.456 7.824 83.864 7.632 83.048 7.632C82.328 7.632 81.744 7.792 81.296 8.112C80.864 8.416 80.496 8.784 80.192 9.216L78.368 7.584C78.832 6.864 79.448 6.288 80.216 5.856C80.984 5.408 82 5.184 83.264 5.184C84.96 5.184 86.248 5.568 87.128 6.336C88.008 7.104 88.448 8.208 88.448 9.648V15.552H89.696V18H87.992ZM82.904 16.056C83.592 16.056 84.176 15.904 84.656 15.6C85.136 15.296 85.376 14.848 85.376 14.256V12.6H83.408C81.808 12.6 81.008 13.112 81.008 14.136V14.544C81.008 15.056 81.168 15.44 81.488 15.696C81.824 15.936 82.296 16.056 82.904 16.056Z" fill="white"/>
</svg>
